- 
http://www.Speed.Cd      fast  and The Hottest Private Tracker on the net

Please Seed back to make the speed Faster!!!

------------------nfo--------------------------
-[IMG]http://img811.imageshack.us/img811/5995/51qaq4begrl.jpg[/IMG]


[color=blue][size=5][b]Father.of.Invention.2010.BDRip.XVID.AC3.HQ.Hive-CM8[/b][/size][/color]


[b]Thx Hive

CM8 Doing It Right The First Time :D


Source: Bluray

Video: 720x304 @bitrate 1800 2pass
Audio: English True HD AC3 640 to AC3 5.1 @448
Sample: Yes, included[/b]

 
http://www.imdb.com/title/tt1381505/


General
Complete name                    : Father.of.Invention.2010.BDRip.XVID.AC3.HQ.Hive-CM8.avi
Format                           : AVI
Format/Info                      : Audio Video Interleave
File size                        : 1.47 GiB
Duration                         : 1h 33mn
Overall bit rate                 : 2 257 Kbps
Writing application              : Nandub v1.0rc2
Writing library                  : Nandub build 1853/release

Video
ID                               : 0
Format                           : MPEG-4 Visual
Format profile                   : Advanced Simple@L5
Format settings, BVOP            : 1
Format settings, QPel            : Yes
Format settings, GMC             : No warppoints
Format settings, Matrix          : Default (H.263)
Muxing mode                      : Packed bitstream
Codec ID                         : XVID
Codec ID/Hint                    : XviD
Duration                         : 1h 33mn
Bit rate                         : 1 800 Kbps
Width                            : 720 pixels
Height                           : 304 pixels
Display aspect ratio             : 2.35:1
Frame rate                       : 23.976 fps
Color space                      : YUV
Chroma subsampling               : 4:2:0
Bit depth                        : 8 bits
Scan type                        : Progressive
Compression mode                 : Lossy
Bits/(Pixel*Frame)               : 0.343
Stream size                      : 1.17 GiB (80%)
Writing library                  : XviD 1.2.1 (UTC 2008-12-04)

Audio
ID                               : 1
Format                           : AC-3
Format/Info                      : Audio Coding 3
Mode extension                   : CM (complete main)
Codec ID                         : 2000
Duration                         : 1h 33mn
Bit rate mode                    : Constant
Bit rate                         : 448 Kbps
Channel(s)                       : 6 channels
Channel positions                : Front: L C R, Side: L R, LFE
Sampling rate                    : 48.0 KHz
Bit depth                        : 16 bits
Compression mode                 : Lossy
Stream size                      : 299 MiB (20%)
Alignment                        : Split accross interleaves
Interleave, duration             : 42 ms (1.00 video frame)
Interleave, preload duration     : 500 ms


Plot:
After 8 years in prison, inventor Robert Axle struggles to win over his estranged family and
catch up on current technology as he works to once again become the king of the infomercial.


Cast:
Kevin Spacey       ...    Robert Axle
Camilla Belle      ...    Claire Axle
Heather Graham     ...    Phoebe
Johnny Knoxville   ...    Troy Coangelo


[img]http://img831.imageshack.us/img831/6743/88325283.png[/img]
[img]http://img571.imageshack.us/img571/9398/fafaq.png[/img]
[img]http://img194.imageshack.us/img194/1017/fafaffafaa.png[/img]
[img]http://img717.imageshack.us/img717/3210/fafaffafafaa.png[/img]
[img]http://img255.imageshack.us/img255/8828/fafaffaffaafafaa.png[/img]
[img]http://img513.imageshack.us/img513/7177/fafafffaafafaa.png[/img]
[img]http://img94.imageshack.us/img94/872/faffaa.png[/img]
[img]http://img824.imageshack.us/img824/8372/faffafaa.png[/img]




Greetz

ViSiON,SiC,SANTi,3LT0N,YanKeeS,MAGNET,THC,T0XiC,LKRG,FANTASIA-PLAY,FANTASIA-M,FLAWL3SS,
D2U,WBZ,BHRG,NOVA,Vik,Rapeseed,SAFC,goldadvance,MEMORY100,KaN1vE,Unevano,Pinnz,Wayne
Mr Hive,cedrict wink,and all P2P groups
Great Work Guys :D

LOOKING FOR ANYTHING YOU WANT TO LOOK AND SOUND BETTER

CM8@hushmail.com